<svg class="icon icon-search" xmlns="http://www.w3.org/2000/svg" width="18" height="20" viewBox="0 0 18 20" fill="none">
  <path d="M7.52385 14.9901C3.48385 14.9901 0.193848 11.7001 0.193848 7.66007C0.193848 3.62007 3.48385 0.330078 7.52385 0.330078C11.5638 0.330078 14.8539 3.62007 14.8539 7.66007C14.8539 11.7001 11.5638 14.9901 7.52385 14.9901ZM7.52385 0.870071C3.77385 0.870071 0.723846 3.92007 0.723846 7.67007C0.723846 11.4201 3.77385 14.4701 7.52385 14.4701C11.2738 14.4701 14.3239 11.4201 14.3239 7.67007C14.3239 3.92007 11.2738 0.870071 7.52385 0.870071Z" fill="black"/>
  <path d="M7.524 15.09C3.434 15.09 0.104004 11.76 0.104004 7.67C0.104004 3.58 3.434 0.25 7.524 0.25C11.614 0.25 14.944 3.58 14.944 7.67C14.944 11.76 11.614 15.09 7.524 15.09ZM7.524 0.440002C3.534 0.440002 0.293991 3.68 0.293991 7.67C0.293991 11.66 3.534 14.9 7.524 14.9C11.514 14.9 14.754 11.66 14.754 7.67C14.754 3.68 11.514 0.440002 7.524 0.440002ZM7.524 14.57C3.724 14.57 0.623993 11.47 0.623993 7.67C0.623993 3.87 3.724 0.769997 7.524 0.769997C11.324 0.769997 14.424 3.87 14.424 7.67C14.424 11.47 11.324 14.57 7.524 14.57ZM7.524 0.959999C3.824 0.959999 0.824005 3.97 0.824005 7.66C0.824005 11.35 3.834 14.36 7.524 14.36C11.214 14.36 14.224 11.35 14.224 7.66C14.224 3.97 11.214 0.959999 7.524 0.959999Z" fill="black"/>
  <path d="M16.7541 19.6499C16.6841 19.6499 16.6041 19.6199 16.5541 19.5599L11.4641 13.5699C11.3741 13.4599 11.3841 13.2899 11.4941 13.1999C11.6041 13.1099 11.7741 13.1199 11.8641 13.2299L16.9541 19.2199C17.0441 19.3299 17.0341 19.4999 16.9241 19.5899C16.8741 19.6299 16.8141 19.6499 16.7541 19.6499Z" fill="black"/>
  <path d="M16.7538 19.7499C16.6438 19.7499 16.5438 19.6999 16.4838 19.6199L11.3938 13.6299C11.2638 13.4799 11.2838 13.2499 11.4338 13.1199C11.5838 12.9899 11.8138 13.0099 11.9438 13.1599L17.0338 19.1499C17.1638 19.2999 17.1438 19.5299 16.9938 19.6599C16.9238 19.7199 16.8438 19.7499 16.7638 19.7499H16.7538ZM11.6538 13.2299C11.6538 13.2299 11.5738 13.2399 11.5438 13.2699C11.4738 13.3299 11.4638 13.4299 11.5238 13.4999L16.6138 19.4899C16.6738 19.5599 16.7738 19.5699 16.8438 19.5099C16.9138 19.4499 16.9238 19.3499 16.8638 19.2799L11.7738 13.2899C11.7738 13.2899 11.6938 13.2299 11.6438 13.2299H11.6538Z" fill="black"/>
</svg>