<svg class="icon icon-account" xmlns="http://www.w3.org/2000/svg" width="13" height="20" viewBox="0 0 13 20" fill="none">
  <path d="M6.06041 9.83005C3.50041 9.83005 1.42041 7.75005 1.42041 5.19005C1.42041 2.63005 3.50041 0.550049 6.06041 0.550049C8.62041 0.550049 10.7004 2.63005 10.7004 5.19005C10.7004 7.75005 8.62041 9.83005 6.06041 9.83005ZM6.06041 1.07005C3.79041 1.07005 1.95041 2.92005 1.95041 5.19005C1.95041 7.46005 3.80041 9.30005 6.06041 9.30005C8.32041 9.30005 10.1704 7.45005 10.1704 5.19005C10.1704 2.93005 8.33041 1.07005 6.06041 1.07005Z" fill="black"/>
  <path d="M6.06031 9.91995C3.45031 9.91995 1.32031 7.78995 1.32031 5.17995C1.32031 2.56995 3.45031 0.449951 6.06031 0.449951C8.67031 0.449951 10.8003 2.56995 10.8003 5.18995C10.8003 7.80995 8.68031 9.92995 6.06031 9.92995V9.91995ZM6.06031 0.649951C3.56031 0.649951 1.52031 2.67995 1.52031 5.18995C1.52031 7.69995 3.56031 9.72995 6.06031 9.72995C8.56031 9.72995 10.6003 7.68995 10.6003 5.18995C10.6003 2.68995 8.57031 0.649951 6.06031 0.649951ZM6.06031 9.39995C3.74031 9.39995 1.85031 7.50995 1.85031 5.18995C1.85031 2.86995 3.74031 0.969951 6.06031 0.969951C8.38031 0.969951 10.2703 2.85995 10.2703 5.17995C10.2703 7.49995 8.38031 9.38995 6.06031 9.38995V9.39995ZM6.06031 1.16995C3.85031 1.16995 2.05031 2.96995 2.05031 5.18995C2.05031 7.40995 3.85031 9.20995 6.07031 9.20995C8.29031 9.20995 10.0903 7.40995 10.0903 5.18995C10.0903 2.96995 8.28031 1.16995 6.06031 1.16995Z" fill="black"/>
  <path d="M11.8702 19.45H0.480215C0.340215 19.45 0.220215 19.33 0.220215 19.19V15.26C0.220215 11.98 2.89021 9.30005 6.18021 9.30005C9.47021 9.30005 12.1402 11.97 12.1402 15.26V19.19C12.1402 19.33 12.0202 19.45 11.8802 19.45H11.8702ZM0.740215 18.93H11.6002V15.26C11.6002 12.26 9.16022 9.83005 6.17022 9.83005C3.18022 9.83005 0.740215 12.26 0.740215 15.26V18.93Z" fill="black"/>
  <path d="M11.8701 19.55H0.480117C0.280117 19.55 0.120117 19.39 0.120117 19.19V15.26C0.120117 11.92 2.84012 9.20996 6.17012 9.20996C9.50012 9.20996 12.2201 11.93 12.2201 15.26V19.19C12.2201 19.39 12.0601 19.55 11.8601 19.55H11.8701ZM6.17012 9.39996C2.94012 9.39996 0.320117 12.03 0.320117 15.26V19.19C0.320117 19.28 0.390117 19.35 0.480117 19.35H11.8701C11.9601 19.35 12.0301 19.28 12.0301 19.19V15.26C12.0301 12.03 9.40012 9.39996 6.17012 9.39996ZM11.6101 19.03H0.740117C0.690117 19.03 0.640117 18.99 0.640117 18.93V15.26C0.640117 12.21 3.12012 9.72996 6.17012 9.72996C9.22012 9.72996 11.7001 12.21 11.7001 15.26V18.93C11.7001 18.98 11.6601 19.03 11.6001 19.03H11.6101ZM0.840117 18.83H11.5101V15.26C11.5101 12.32 9.12012 9.92996 6.18012 9.92996C3.24012 9.92996 0.840117 12.32 0.840117 15.26V18.83Z" fill="black"/>
</svg>