<svg class="icon icon-cart-empty" xmlns="http://www.w3.org/2000/svg" width="13" height="20" viewBox="0 0 13 20" fill="none">
  <path d="M12.6403 19.5001H0.580315C0.440315 19.5001 0.320312 19.3801 0.320312 19.2401V4.83006C0.320312 4.69006 0.440315 4.57007 0.580315 4.57007H12.6403C12.7803 4.57007 12.9003 4.69006 12.9003 4.83006V19.2401C12.9003 19.3801 12.7803 19.5001 12.6403 19.5001ZM0.850315 18.9801H12.3803V5.09006H0.850315V18.9801Z" fill="black"/>
  <path d="M12.6402 19.6H0.580215C0.380215 19.6 0.220215 19.44 0.220215 19.24V4.82997C0.220215 4.62997 0.380215 4.46997 0.580215 4.46997H12.6402C12.8402 4.46997 13.0002 4.62997 13.0002 4.82997V19.24C13.0002 19.44 12.8402 19.6 12.6402 19.6ZM0.590214 4.65997C0.500214 4.65997 0.430214 4.72998 0.430214 4.81998V19.23C0.430214 19.32 0.500214 19.39 0.590214 19.39H12.6502C12.7402 19.39 12.8102 19.32 12.8102 19.23V4.81998C12.8102 4.72998 12.7402 4.65997 12.6502 4.65997H0.590214ZM12.3802 19.08H0.850216C0.800216 19.08 0.750214 19.04 0.750214 18.98V5.08997C0.750214 5.03997 0.790216 4.98997 0.850216 4.98997H12.3802C12.4302 4.98997 12.4802 5.02997 12.4802 5.08997V18.98C12.4802 19.03 12.4402 19.08 12.3802 19.08ZM0.950214 18.88H12.2802V5.18997H0.950214V18.88Z" fill="black"/>
  <path d="M10.4805 7.90001C10.3405 7.90001 10.2205 7.78 10.2205 7.64V4.63C10.2205 2.64 8.60049 1.03 6.62049 1.03C4.64049 1.03 3.02049 2.65 3.02049 4.63V7.64C3.02049 7.78 2.90049 7.90001 2.76049 7.90001C2.62049 7.90001 2.50049 7.78 2.50049 7.64V4.63C2.50049 2.35 4.35049 0.5 6.63049 0.5C8.91049 0.5 10.7605 2.35 10.7605 4.63V7.64C10.7605 7.78 10.6405 7.90001 10.5005 7.90001H10.4805Z" fill="black"/>
  <path d="M10.4804 7.99989C10.2804 7.99989 10.1204 7.83989 10.1204 7.63989V4.6299C10.1204 2.6999 8.55037 1.11989 6.61037 1.11989C4.67037 1.11989 3.10037 2.6899 3.10037 4.6299V7.63989C3.10037 7.83989 2.94037 7.99989 2.74037 7.99989C2.54037 7.99989 2.38037 7.83989 2.38037 7.63989V4.6299C2.38037 2.2999 4.28037 0.399902 6.61037 0.399902C8.94037 0.399902 10.8404 2.2999 10.8404 4.6299V7.63989C10.8404 7.83989 10.6804 7.99989 10.4804 7.99989ZM6.62037 0.929901C8.66037 0.929901 10.3204 2.5899 10.3204 4.6299V7.63989C10.3204 7.72989 10.3904 7.7999 10.4804 7.7999C10.5704 7.7999 10.6404 7.72989 10.6404 7.63989V4.6299C10.6404 2.4099 8.83037 0.599899 6.61037 0.599899C4.39037 0.599899 2.58037 2.4099 2.58037 4.6299V7.63989C2.58037 7.72989 2.65037 7.7999 2.74037 7.7999C2.83037 7.7999 2.90037 7.72989 2.90037 7.63989V4.6299C2.90037 2.5899 4.56037 0.929901 6.60037 0.929901H6.62037Z" fill="black"/>
</svg>